<?xml version="1.0" standalone="no"?>
<!DOCTYPE svg PUBLIC "-//W3C//DTD SVG 20010904//EN"
 "http://www.w3.org/TR/2001/REC-SVG-20010904/DTD/svg10.dtd">
<svg version="1.0" xmlns="http://www.w3.org/2000/svg"
 width="1253.000000pt" height="246.000000pt" viewBox="0 0 1253.000000 246.000000"
 preserveAspectRatio="xMidYMid meet">

<g transform="translate(0.000000,246.000000) scale(0.100000,-0.100000)"
fill="#000000" stroke="none">
<path d="M2065 2117 c-84 -28 -125 -77 -125 -149 0 -99 125 -165 265 -139 128
24 190 134 129 228 -36 56 -182 88 -269 60z"/>
<path d="M8083 2116 c-90 -29 -132 -87 -120 -163 14 -84 83 -126 208 -127 127
0 204 58 202 153 -1 60 -27 101 -78 125 -48 23 -159 29 -212 12z"/>
<path d="M9305 2050 c-88 -10 -161 -19 -162 -19 -2 -1 -3 -75 -3 -165 l0 -163
-132 -5 c-112 -5 -144 -9 -202 -32 -148 -57 -238 -163 -277 -326 -17 -76 -15
-278 5 -370 21 -98 78 -212 130 -256 115 -99 335 -97 446 3 l50 45 34 -36 c48
-52 96 -69 196 -69 66 -1 96 4 133 21 26 11 47 23 47 26 0 3 -9 20 -19 38 -36
61 -41 144 -41 746 l0 582 -22 -1 c-13 -1 -95 -9 -183 -19z m-200 -477 l36
-17 -3 -331 c-3 -313 -4 -332 -24 -376 -17 -37 -29 -49 -59 -59 -112 -37 -155
72 -154 395 0 231 25 350 81 389 29 21 79 20 123 -1z"/>
<path d="M11862 1989 c-64 -12 -106 -40 -110 -72 -2 -14 11 -196 28 -404 26
-313 34 -385 51 -419 24 -52 60 -68 131 -62 60 6 78 24 78 78 0 20 11 157 25
306 34 358 34 440 3 496 -37 68 -109 94 -206 77z"/>
<path d="M900 1954 c-30 -2 -74 -6 -97 -10 l-43 -5 0 -623 0 -624 33 -6 c73
-13 419 -28 507 -22 274 19 466 119 515 267 24 72 22 190 -4 259 -31 83 -120
161 -216 190 -22 6 -47 14 -55 16 -9 3 6 16 40 35 72 39 95 63 126 126 24 47
26 62 22 132 -8 134 -60 194 -211 244 -55 18 -90 21 -312 22 -137 1 -275 1
-305 -1z m432 -151 c46 -22 63 -67 63 -163 0 -65 -5 -94 -20 -125 -32 -65
-116 -107 -180 -91 l-25 6 0 195 0 194 38 3 c48 5 90 -1 124 -19z m9 -535 c64
-36 84 -89 84 -223 0 -95 -3 -116 -23 -153 -37 -69 -104 -100 -188 -87 l-44 6
0 246 0 246 66 -6 c39 -4 81 -15 105 -29z"/>
<path d="M325 1688 c-75 -28 -115 -78 -115 -145 0 -53 30 -96 84 -123 39 -19
59 -21 129 -18 136 6 197 52 197 148 0 94 -62 142 -190 147 -41 1 -88 -3 -105
-9z"/>
<path d="M2900 1693 c-42 -7 -123 -35 -170 -58 -103 -52 -177 -148 -215 -279
-21 -71 -24 -245 -5 -331 48 -230 213 -367 457 -382 228 -14 407 78 438 224 7
37 -7 98 -30 123 -16 17 -18 16 -56 -25 -61 -66 -117 -89 -219 -89 -73 -1 -90
2 -124 23 -45 28 -81 98 -92 178 l-6 52 54 -6 c72 -7 239 12 319 36 35 11 82
34 104 50 111 81 126 288 28 383 -45 43 -128 84 -203 98 -51 10 -229 12 -280
3z m173 -123 c32 -25 47 -75 47 -155 0 -119 -61 -185 -187 -201 l-53 -7 0 66
c0 138 44 281 94 305 34 17 71 14 99 -8z"/>
<path d="M4070 1683 c-76 -27 -124 -68 -161 -136 l-16 -30 -6 39 c-4 22 -7 58
-7 81 0 23 -3 44 -7 46 -5 2 -73 -1 -153 -7 l-145 -11 -3 -492 -2 -493 190 0
189 0 3 393 c3 354 5 396 21 428 36 73 128 82 165 15 15 -27 18 -75 22 -366 6
-359 8 -374 60 -429 56 -58 178 -83 281 -57 89 23 96 33 67 87 -22 43 -23 55
-29 369 -4 179 -11 341 -16 360 -26 94 -76 158 -153 193 -61 28 -234 34 -300
10z"/>
<path d="M6123 1685 c-241 -54 -373 -233 -373 -505 0 -283 138 -475 378 -526
220 -46 452 27 513 160 25 55 24 122 -2 165 l-21 34 -38 -45 c-87 -101 -284
-131 -368 -54 -34 31 -62 90 -69 147 -3 27 -6 51 -7 55 0 3 53 7 119 9 261 7
399 71 435 201 8 26 11 75 8 119 -8 118 -59 178 -197 227 -73 27 -286 34 -378
13z m211 -118 c22 -23 46 -100 46 -151 0 -44 -30 -122 -57 -148 -27 -26 -121
-58 -170 -58 -27 0 -28 10 -13 142 12 106 42 190 77 218 35 28 88 26 117 -3z"/>
<path d="M7323 1682 c-69 -25 -117 -63 -150 -120 l-28 -47 -8 85 c-5 47 -9 85
-10 86 -1 0 -68 -4 -149 -9 l-148 -11 0 -493 0 -493 184 0 184 0 4 388 c4 418
6 439 59 476 27 18 71 21 101 5 46 -25 51 -62 57 -419 7 -368 7 -369 71 -424
42 -35 101 -50 190 -50 54 1 88 7 122 22 l48 21 -28 58 -27 58 -6 330 c-5 294
-7 335 -25 379 -26 65 -74 119 -131 147 -66 32 -234 38 -310 11z"/>
<path d="M10028 1684 c-172 -41 -290 -165 -333 -348 -19 -80 -19 -256 0 -329
43 -167 146 -281 303 -340 47 -17 80 -21 187 -21 149 0 206 16 305 85 143 100
206 256 197 489 -5 135 -24 208 -73 285 -56 87 -167 160 -282 184 -72 15 -234
12 -304 -5z m204 -105 c56 -30 84 -201 75 -473 -8 -242 -28 -322 -89 -347 -55
-22 -110 13 -128 82 -19 70 -29 184 -30 329 0 236 24 371 73 405 25 18 70 19
99 4z"/>
<path d="M11105 1690 c-67 -14 -154 -50 -197 -83 -75 -57 -114 -172 -89 -264
25 -91 85 -144 281 -251 129 -70 195 -131 205 -190 15 -92 -26 -152 -105 -152
-37 0 -51 5 -71 26 -21 23 -24 36 -27 124 l-4 98 -51 6 c-87 11 -190 -17 -228
-60 -40 -46 -42 -132 -5 -188 41 -63 163 -104 336 -112 136 -7 232 10 326 56
111 54 164 142 164 269 0 115 -57 179 -265 296 -182 103 -225 148 -225 234 0
49 30 88 74 97 71 13 106 -36 106 -149 l0 -75 53 -6 c135 -17 257 53 257 147
0 88 -66 140 -217 172 -72 16 -251 18 -318 5z"/>
<path d="M5535 1662 l-160 -2 -79 -405 c-44 -223 -83 -405 -86 -405 -3 0 -41
182 -85 405 l-79 405 -197 0 -196 0 94 -347 c51 -192 110 -412 131 -490 l37
-143 241 0 240 0 61 193 c34 105 104 326 156 490 52 163 92 298 88 300 -3 1
-78 1 -166 -1z"/>
<path d="M1960 1249 c0 -296 3 -423 12 -453 16 -53 76 -112 130 -128 68 -20
185 -15 241 10 l48 21 -20 38 c-35 70 -41 144 -41 540 l0 383 -185 0 -185 0 0
-411z"/>
<path d="M7980 1249 c0 -296 3 -423 12 -453 17 -56 73 -109 134 -127 72 -20
179 -17 237 9 26 11 47 23 47 26 0 3 -9 20 -19 38 -35 60 -41 139 -41 535 l0
383 -185 0 -185 0 0 -411z"/>
<path d="M327 1298 c-13 -11 -22 -72 -47 -349 -16 -185 -30 -365 -30 -400 0
-74 28 -140 72 -173 38 -27 131 -33 196 -12 87 29 83 2 50 416 -33 425 -39
463 -78 502 -25 24 -36 28 -87 28 -33 0 -67 -6 -76 -12z"/>
<path d="M11860 941 c-117 -38 -163 -117 -120 -206 30 -62 87 -89 191 -89 62
0 86 5 126 25 111 57 110 198 -1 253 -42 21 -155 31 -196 17z"/>
</g>
</svg>
