<?xml version="1.0" encoding="UTF-8"?>
<!DOCTYPE svg PUBLIC "-//W3C//DTD SVG 1.1//EN" "http://www.w3.org/Graphics/SVG/1.1/DTD/svg11.dtd">
<svg xmlns="http://www.w3.org/2000/svg" version="1.1" width="357px" height="390px" style="shape-rendering:geometricPrecision; text-rendering:geometricPrecision; image-rendering:optimizeQuality; fill-rule:evenodd; clip-rule:evenodd" xmlns:xlink="http://www.w3.org/1999/xlink">
<g><path style="opacity:1" fill="#fefefe" d="M -0.5,-0.5 C 118.5,-0.5 237.5,-0.5 356.5,-0.5C 356.5,129.5 356.5,259.5 356.5,389.5C 237.5,389.5 118.5,389.5 -0.5,389.5C -0.5,259.5 -0.5,129.5 -0.5,-0.5 Z"/></g>
<g><path style="opacity:1" fill="#f1834a" d="M 303.5,88.5 C 303.394,91.0786 304.061,93.412 305.5,95.5C 305.657,96.8734 305.49,98.2068 305,99.5C 304.623,98.0577 303.79,97.0577 302.5,96.5C 300.833,96.5 299.167,96.5 297.5,96.5C 297.232,98.099 297.566,99.4324 298.5,100.5C 301.828,102.725 304.828,106.058 307.5,110.5C 307.244,114.269 307.577,117.936 308.5,121.5C 308.998,124.01 309.664,126.51 310.5,129C 310.397,130.561 310.063,132.061 309.5,133.5C 311.721,136.791 312.887,140.457 313,144.5C 313.406,138.472 313.406,132.472 313,126.5C 314.74,125.284 315.74,123.618 316,121.5C 317.399,124.629 319.065,127.629 321,130.5C 321.031,134.768 322.031,138.768 324,142.5C 324.959,155.803 326.793,168.97 329.5,182C 325.829,192.23 324.829,202.73 326.5,213.5C 325.689,214.216 325.022,215.05 324.5,216C 325.592,221.126 325.759,226.293 325,231.5C 324.444,229.405 323.944,229.238 323.5,231C 324.583,237.504 324.583,243.837 323.5,250C 322.789,251.255 321.956,252.421 321,253.5C 318.594,262.627 315.927,271.627 313,280.5C 307.934,287.007 303.601,294.007 300,301.5C 295.251,305.578 291.251,310.245 288,315.5C 285.623,318.921 283.79,322.588 282.5,326.5C 277.915,327.242 274.582,329.742 272.5,334C 271.5,334.333 270.5,334.667 269.5,335C 263.782,341.387 257.448,347.054 250.5,352C 244.455,355.071 238.455,358.238 232.5,361.5C 231.702,361.043 231.369,360.376 231.5,359.5C 230.402,358.603 230.402,357.77 231.5,357C 235.908,354.93 240.075,352.43 244,349.5C 244.167,349.167 244.333,348.833 244.5,348.5C 241.16,347.068 238.327,347.734 236,350.5C 235.667,350.167 235.333,349.833 235,349.5C 229.726,353.014 224.226,356.014 218.5,358.5C 217.448,358.351 216.448,358.517 215.5,359C 218.156,360.743 220.822,360.909 223.5,359.5C 225.331,360.052 226.997,360.052 228.5,359.5C 228.833,359.833 229.167,360.167 229.5,360.5C 228.807,361.518 228.141,362.518 227.5,363.5C 226.711,363.783 226.044,364.283 225.5,365C 208.618,365.959 191.785,367.459 175,369.5C 172.578,369.518 170.412,368.851 168.5,367.5C 157.204,368.234 146.037,369.567 135,371.5C 129.859,370.42 124.693,370.42 119.5,371.5C 117.359,371.387 115.525,370.72 114,369.5C 107.746,370.726 102.246,371.393 97.5,371.5C 91.9319,370.103 86.2653,369.437 80.5,369.5C 80.838,366.989 80.838,364.655 80.5,362.5C 78.2827,365.095 75.9494,367.595 73.5,370C 70.591,369.716 67.7577,369.883 65,370.5C 59.2972,369.07 53.4638,368.237 47.5,368C 43.7491,366.585 40.9158,364.085 39,360.5C 38.2899,355.154 37.1233,349.988 35.5,345C 36.6178,338.436 36.2845,331.936 34.5,325.5C 36.3025,324.406 36.6359,322.739 35.5,320.5C 37.4664,308.459 38.2998,296.459 38,284.5C 37,285.833 36,287.167 35,288.5C 34.0033,285.199 33.6699,281.866 34,278.5C 34.5,278 35,277.5 35.5,277C 34.5562,274.281 34.2229,271.448 34.5,268.5C 34.7651,263.375 34.7651,258.375 34.5,253.5C 35.0431,253.44 35.3764,253.107 35.5,252.5C 33.8971,249.656 33.3971,246.656 34,243.5C 34.7175,244.451 35.5509,244.617 36.5,244C 35.0423,241.923 34.3757,239.59 34.5,237C 34.9395,226.909 34.9395,216.909 34.5,207C 34.9054,206.055 35.572,205.388 36.5,205C 35.72,201.617 35.3867,198.284 35.5,195C 36.9594,177.249 37.4594,159.415 37,141.5C 36.1107,142.888 35.6107,142.722 35.5,141C 37.0014,137.66 36.6681,134.493 34.5,131.5C 35.9227,127.364 35.5893,123.364 33.5,119.5C 33.8333,118.5 34.5,117.833 35.5,117.5C 36.1131,118.98 36.4464,120.313 36.5,121.5C 37.7294,118.801 37.7294,116.135 36.5,113.5C 36.4802,111.857 37.1468,110.524 38.5,109.5C 38.1373,108.817 37.8039,108.15 37.5,107.5C 37.9949,105.548 38.3282,103.548 38.5,101.5C 38.3507,99.6803 37.6841,98.1803 36.5,97C 39.0789,95.271 39.0789,93.4377 36.5,91.5C 40.2655,88.858 40.2655,86.0247 36.5,83C 37.4939,81.6713 38.4939,80.338 39.5,79C 39,77.5 38.5,76 38,74.5C 37.6667,74.8333 37.3333,75.1667 37,75.5C 36.8333,72.1667 36.6667,68.8333 36.5,65.5C 36.6111,61.5194 37.2778,57.6861 38.5,54C 36.0618,45.2143 35.8951,36.381 38,27.5C 40.367,24.0682 43.0337,23.7348 46,26.5C 46.8333,25.6667 47.6667,24.8333 48.5,24C 65.6781,20.95 83.0114,19.45 100.5,19.5C 100.5,20.5 100.5,21.5 100.5,22.5C 121.14,20.8831 141.806,20.3831 162.5,21C 176.601,22.2599 190.601,23.5933 204.5,25C 206.669,27.2031 209.335,28.0365 212.5,27.5C 212.351,28.552 212.517,29.552 213,30.5C 213.333,30.1667 213.667,29.8333 214,29.5C 220.829,30.9 227.329,33.2333 233.5,36.5C 234.167,36.1667 234.833,35.8333 235.5,35.5C 238.247,37.2221 241.247,38.3887 244.5,39C 254.853,46.6845 265.02,53.8511 275,60.5C 279.204,64.8964 284.037,68.3964 289.5,71C 290.615,73.77 292.115,76.27 294,78.5C 295.011,79.3366 296.178,79.67 297.5,79.5C 297.687,81.5643 298.187,83.5643 299,85.5C 299.333,85.1667 299.667,84.8333 300,84.5C 301.627,85.5323 302.793,86.8656 303.5,88.5 Z"/></g>
<g><path style="opacity:1" fill="#f6b898" d="M 59.5,23.5 C 61.8568,23.3367 64.1902,23.5034 66.5,24C 64.0454,25.5403 61.3787,25.8736 58.5,25C 59.056,24.6174 59.3893,24.1174 59.5,23.5 Z"/></g>
<g><path style="opacity:1" fill="#fef6f2" d="M 84.5,33.5 C 79.2639,33.9194 73.9305,33.9194 68.5,33.5C 68.5,32.5 68.5,31.5 68.5,30.5C 75.1079,28.5305 81.7746,28.6972 88.5,31C 88.9574,31.414 89.2907,31.914 89.5,32.5C 87.9547,33.4519 86.288,33.7852 84.5,33.5 Z"/></g>
<g><path style="opacity:1" fill="#fce6db" d="M 95.5,28.5 C 99.8461,28.3343 104.179,28.501 108.5,29C 106.2,30.1091 103.7,30.6091 101,30.5C 98.8333,30.3333 96.6667,30.1667 94.5,30C 95.056,29.6174 95.3893,29.1174 95.5,28.5 Z"/></g>
<g><path style="opacity:1" fill="#fdf1eb" d="M 43.5,40.5 C 41.2848,46.1413 40.1182,45.8079 40,39.5C 39.3333,36.5 39.3333,33.5 40,30.5C 40.414,30.0426 40.914,29.7093 41.5,29.5C 42.2628,32.8983 42.9295,36.565 43.5,40.5 Z"/></g>
<g><path style="opacity:1" fill="#f7ae89" d="M 68.5,30.5 C 68.5,31.5 68.5,32.5 68.5,33.5C 73.9305,33.9194 79.2639,33.9194 84.5,33.5C 83.376,34.8086 81.876,35.4753 80,35.5C 75.8737,34.6707 71.7071,34.3374 67.5,34.5C 67.2322,32.901 67.5655,31.5676 68.5,30.5 Z"/></g>
<g><path style="opacity:1" fill="#fde8de" d="M 43.5,40.5 C 44.1174,40.3893 44.6174,40.056 45,39.5C 45.1816,36.7737 45.6816,34.1071 46.5,31.5C 47.0139,35.8232 48.3473,39.8232 50.5,43.5C 48.4912,45.0105 46.6579,46.6771 45,48.5C 43.9207,45.9373 43.4207,43.2706 43.5,40.5 Z"/></g>
<g><path style="opacity:1" fill="#fef8f5" d="M 74.5,42.5 C 72.8333,42.5 71.1667,42.5 69.5,42.5C 69.5,40.8333 69.5,39.1667 69.5,37.5C 72.8838,34.3553 75.2172,35.0219 76.5,39.5C 76.3601,41.0296 75.6935,42.0296 74.5,42.5 Z"/></g>
<g><path style="opacity:1" fill="#fdf1eb" d="M 57.5,37.5 C 59.3265,39.4368 59.4932,41.4368 58,43.5C 57.5045,41.5273 57.3379,39.5273 57.5,37.5 Z"/></g>
<g><path style="opacity:1" fill="#fad6c4" d="M 63.5,37.5 C 65.9732,37.9473 66.1399,38.9473 64,40.5C 63.5172,39.552 63.3505,38.552 63.5,37.5 Z"/></g>
<g><path style="opacity:1" fill="#fdf0ea" d="M 153.5,38.5 C 156.871,38.2053 160.204,39.0386 163.5,41C 162.975,41.6924 162.308,42.1924 161.5,42.5C 158.891,41.7695 156.224,41.2695 153.5,41C 152.402,40.2303 152.402,39.397 153.5,38.5 Z"/></g>
<g><path style="opacity:1" fill="#fce2d5" d="M 229.5,40.5 C 231.176,41.1834 231.843,42.5168 231.5,44.5C 227.421,44.4662 226.754,43.1328 229.5,40.5 Z"/></g>
<g><path style="opacity:1" fill="#f5ae89" d="M 54.5,42.5 C 53.2027,47.0665 53.2027,51.7331 54.5,56.5C 53.1914,54.4294 52.5248,51.9294 52.5,49C 52.8333,46.5 53.1667,44 53.5,41.5C 54.1067,41.6236 54.44,41.9569 54.5,42.5 Z"/></g>
<g><path style="opacity:1" fill="#f7bea0" d="M 69.5,37.5 C 69.5,39.1667 69.5,40.8333 69.5,42.5C 71.1667,42.5 72.8333,42.5 74.5,42.5C 72.7354,43.4614 70.7354,43.7947 68.5,43.5C 68.2053,41.2646 68.5386,39.2646 69.5,37.5 Z"/></g>
<g><path style="opacity:1" fill="#fef8f1" d="M 199.5,56.5 C 195.785,58.0733 192.285,57.7399 189,55.5C 185.012,55.4276 181.012,55.7609 177,56.5C 170.198,55.8161 163.364,55.1494 156.5,54.5C 154.208,56.6685 152.375,56.0018 151,52.5C 146.107,54.7972 140.941,55.1305 135.5,53.5C 134.328,53.0814 133.328,52.4147 132.5,51.5C 130.227,52.428 127.894,52.428 125.5,51.5C 122.313,51.6665 119.479,52.6665 117,54.5C 116.333,53.8333 115.667,53.1667 115,52.5C 113.127,54.3958 110.794,55.3958 108,55.5C 106.289,55.5607 104.956,54.8941 104,53.5C 102.333,54.5 100.667,55.5 99,56.5C 97.9826,53.972 96.8159,53.972 95.5,56.5C 94.8333,55.8333 94.1667,55.1667 93.5,54.5C 92.8333,56.1667 92.1667,57.8333 91.5,59.5C 90.5723,57.6652 89.4056,57.3318 88,58.5C 86.8118,57.4366 86.3118,56.1033 86.5,54.5C 85.4324,53.5655 84.099,53.2322 82.5,53.5C 81.6043,54.5063 80.9377,54.5063 80.5,53.5C 79.922,51.3091 80.922,49.6424 83.5,48.5C 94.94,49.2275 106.107,49.5609 117,49.5C 118.5,49 120,48.5 121.5,48C 129.675,47.4611 137.842,47.6277 146,48.5C 153.222,48.1628 160.389,47.4961 167.5,46.5C 177.256,49.9597 187.256,52.4597 197.5,54C 198.756,54.4169 199.423,55.2502 199.5,56.5 Z"/></g>
<g><path style="opacity:1" fill="#fef7f4" d="M 54.5,42.5 C 55.1534,43.8068 55.8201,45.1401 56.5,46.5C 56.4185,49.3331 56.2518,52.3331 56,55.5C 55.6174,56.056 55.1174,56.3893 54.5,56.5C 53.2027,51.7331 53.2027,47.0665 54.5,42.5 Z"/></g>
<g><path style="opacity:1" fill="#fdeae1" d="M 70.5,48.5 C 72.5,48.5 73.5,49.5 73.5,51.5C 73.5,49.5 72.5,48.5 70.5,48.5 Z"/></g>
<g><path style="opacity:1" fill="#f9c7ad" d="M 70.5,48.5 C 73.4232,48.3465 76.4232,48.3465 79.5,48.5C 77.8543,50.0896 75.8543,51.0896 73.5,51.5C 73.5,49.5 72.5,48.5 70.5,48.5 Z"/></g>
<g><path style="opacity:1" fill="#fbc72e" d="M 199.5,56.5 C 199.833,56.5 200.167,56.5 200.5,56.5C 201.404,57.209 201.737,58.209 201.5,59.5C 205.316,60.6203 208.983,60.6203 212.5,59.5C 213.167,58.8333 213.833,58.1667 214.5,57.5C 214.833,57.5 215.167,57.5 215.5,57.5C 216.167,57.5 216.833,57.5 217.5,57.5C 220.91,58.7874 223.91,60.7874 226.5,63.5C 232.344,67.8362 238.344,72.0029 244.5,76C 246.049,77.214 247.215,78.714 248,80.5C 250.937,79.5276 254.104,79.5276 257.5,80.5C 259.088,84.423 261.754,87.423 265.5,89.5C 268.152,92.9289 270.986,96.2623 274,99.5C 276.258,104.353 278.758,109.019 281.5,113.5C 281.5,115.833 281.5,118.167 281.5,120.5C 282.675,120.281 283.675,120.614 284.5,121.5C 286.438,126.762 288.271,132.096 290,137.5C 290.671,138.252 291.504,138.586 292.5,138.5C 292.517,140.565 292.85,142.565 293.5,144.5C 293.733,147.542 294.733,150.208 296.5,152.5C 296.5,152.833 296.5,153.167 296.5,153.5C 296.338,155.527 296.505,157.527 297,159.5C 297.383,160.056 297.883,160.389 298.5,160.5C 299.119,163.994 299.786,167.494 300.5,171C 300.176,176.477 300.176,181.977 300.5,187.5C 299.835,190.47 299.169,193.47 298.5,196.5C 299.383,197.548 300.05,198.715 300.5,200C 300.214,204.108 298.881,207.775 296.5,211C 296.957,211.414 297.291,211.914 297.5,212.5C 295.662,217.356 294.328,222.356 293.5,227.5C 294.447,229.059 295.113,230.726 295.5,232.5C 291.538,244.378 288.205,256.378 285.5,268.5C 284.527,270.948 284.194,273.615 284.5,276.5C 283.5,277.833 282.5,279.167 281.5,280.5C 276.616,286.569 271.949,292.903 267.5,299.5C 259.9,310.583 249.9,319.083 237.5,325C 236.112,327.497 234.279,328.33 232,327.5C 229.41,329.273 226.577,330.273 223.5,330.5C 220.025,326.327 218.692,326.66 219.5,331.5C 218.295,333.138 216.962,333.471 215.5,332.5C 214.312,331.952 213.145,331.619 212,331.5C 210.961,332.244 210.461,333.244 210.5,334.5C 210.167,334.5 209.833,334.5 209.5,334.5C 207.32,333.206 205.32,333.539 203.5,335.5C 202.209,335.263 201.209,335.596 200.5,336.5C 192.91,337.9 185.243,338.733 177.5,339C 176.747,340.487 175.914,340.654 175,339.5C 172.723,340.117 170.556,340.784 168.5,341.5C 166.143,341.663 163.81,341.497 161.5,341C 159.983,339.492 158.149,338.658 156,338.5C 152.333,339.167 148.667,339.833 145,340.5C 133.895,340.569 122.728,340.235 111.5,339.5C 105.409,339.211 99.4093,339.545 93.5,340.5C 88.2384,340.195 83.0717,340.529 78,341.5C 75.961,339.126 73.6277,337.126 71,335.5C 70.2177,332.69 69.3844,330.023 68.5,327.5C 69.9382,320.101 69.6048,312.768 67.5,305.5C 68.4759,293.954 68.4759,282.454 67.5,271C 67.5093,269.596 68.0093,268.43 69,267.5C 69.6622,254.99 70.4955,242.49 71.5,230C 70.1945,222.97 68.5279,216.136 66.5,209.5C 67.1098,208.609 67.4431,207.609 67.5,206.5C 67.9045,200.073 67.9045,193.74 67.5,187.5C 72.6294,186.386 72.6294,185.719 67.5,185.5C 67.6567,182.375 68.6567,179.542 70.5,177C 69.6045,171.792 69.6045,166.458 70.5,161C 69.8333,158.667 69.1667,156.333 68.5,154C 69.1667,153 69.8333,152 70.5,151C 69.2582,146.642 68.5916,142.142 68.5,137.5C 68.6667,133.5 68.8333,129.5 69,125.5C 69.6924,124.975 70.1924,124.308 70.5,123.5C 68.7118,122.717 67.7118,121.384 67.5,119.5C 67.8333,118.833 68.1667,118.167 68.5,117.5C 68.9817,116.584 69.315,115.584 69.5,114.5C 68.0526,107.912 67.3859,101.245 67.5,94.5C 68.675,94.719 69.675,94.3857 70.5,93.5C 69.8333,92.1667 69.1667,90.8333 68.5,89.5C 70.0055,84.7642 71.0055,79.9308 71.5,75C 70.0267,74.2904 69.3601,73.1238 69.5,71.5C 69.5,70.5 69.5,69.5 69.5,68.5C 71.9406,66.9255 73.1072,64.5921 73,61.5C 74.3799,58.6563 75.8799,55.9897 77.5,53.5C 78.5,53.5 79.5,53.5 80.5,53.5C 80.9377,54.5063 81.6043,54.5063 82.5,53.5C 84.4931,54.4716 84.8264,55.8049 83.5,57.5C 79.9056,57.4246 78.0722,59.0912 78,62.5C 80.0581,61.7709 81.8914,60.7709 83.5,59.5C 84.6873,57.9275 85.6873,56.2608 86.5,54.5C 86.3118,56.1033 86.8118,57.4366 88,58.5C 89.4056,57.3318 90.5723,57.6652 91.5,59.5C 92.1667,57.8333 92.8333,56.1667 93.5,54.5C 94.1667,55.1667 94.8333,55.8333 95.5,56.5C 96.8159,53.972 97.9826,53.972 99,56.5C 100.667,55.5 102.333,54.5 104,53.5C 104.956,54.8941 106.289,55.5607 108,55.5C 110.794,55.3958 113.127,54.3958 115,52.5C 115.667,53.1667 116.333,53.8333 117,54.5C 119.479,52.6665 122.313,51.6665 125.5,51.5C 127.894,52.428 130.227,52.428 132.5,51.5C 133.328,52.4147 134.328,53.0814 135.5,53.5C 140.941,55.1305 146.107,54.7972 151,52.5C 152.375,56.0018 154.208,56.6685 156.5,54.5C 163.364,55.1494 170.198,55.8161 177,56.5C 181.012,55.7609 185.012,55.4276 189,55.5C 192.285,57.7399 195.785,58.0733 199.5,56.5 Z"/></g>
<g><path style="opacity:1" fill="#fef4e7" d="M 77.5,53.5 C 75.8799,55.9897 74.3799,58.6563 73,61.5C 73.1072,64.5921 71.9406,66.9255 69.5,68.5C 69.2969,66.9557 68.6302,65.6223 67.5,64.5C 69.1982,60.5619 71.5316,57.0619 74.5,54C 75.448,53.5172 76.448,53.3505 77.5,53.5 Z"/></g>
<g><path style="opacity:1" fill="#fde7a7" d="M 82.5,53.5 C 84.099,53.2322 85.4324,53.5655 86.5,54.5C 85.6873,56.2608 84.6873,57.9275 83.5,59.5C 83.5,58.8333 83.5,58.1667 83.5,57.5C 84.8264,55.8049 84.4931,54.4716 82.5,53.5 Z"/></g>
<g><path style="opacity:1" fill="#f9c8aa" d="M 217.5,57.5 C 216.833,57.5 216.167,57.5 215.5,57.5C 216.167,54.8333 216.833,54.8333 217.5,57.5 Z"/></g>
<g><path style="opacity:1" fill="#fef9eb" d="M 83.5,57.5 C 83.5,58.1667 83.5,58.8333 83.5,59.5C 81.8914,60.7709 80.0581,61.7709 78,62.5C 78.0722,59.0912 79.9056,57.4246 83.5,57.5 Z"/></g>
<g><path style="opacity:1" fill="#fef0df" d="M 212.5,59.5 C 208.983,60.6203 205.316,60.6203 201.5,59.5C 201.737,58.209 201.404,57.209 200.5,56.5C 201.79,54.0134 202.79,54.3467 203.5,57.5C 204.192,56.9747 204.692,56.3081 205,55.5C 207.963,56.0256 210.463,57.359 212.5,59.5 Z"/></g>
<g><path style="opacity:1" fill="#fad9c4" d="M 214.5,57.5 C 213.833,58.1667 213.167,58.8333 212.5,59.5C 212.281,58.325 212.614,57.325 213.5,56.5C 214.107,56.6236 214.44,56.9569 214.5,57.5 Z"/></g>
<g><path style="opacity:1" fill="#fef8ea" d="M 214.5,59.5 C 220.561,62.0354 226.228,65.3688 231.5,69.5C 231,69.8333 230.5,70.1667 230,70.5C 225.253,68.2726 220.419,66.2726 215.5,64.5C 214.548,62.9547 214.215,61.288 214.5,59.5 Z"/></g>
<g><path style="opacity:1" fill="#fceae1" d="M 57.5,60.5 C 60.3213,60.3159 61.9879,61.6493 62.5,64.5C 61.675,65.3857 60.675,65.719 59.5,65.5C 59.6665,74.8393 59.4998,84.1726 59,93.5C 57.9783,92.646 57.1449,91.646 56.5,90.5C 56.6855,80.6164 57.0189,70.6164 57.5,60.5 Z"/></g>
<g><path style="opacity:1" fill="#f7b593" d="M 52.5,61.5 C 53.5862,61.62 54.2528,62.2867 54.5,63.5C 54.1667,64.1667 53.8333,64.8333 53.5,65.5C 52.5713,64.3112 52.238,62.9778 52.5,61.5 Z"/></g>
<g><path style="opacity:1" fill="#fdebe2" d="M 264.5,61.5 C 266.886,62.3733 268.886,63.8733 270.5,66C 268.655,67.128 266.655,67.628 264.5,67.5C 264.5,65.5 264.5,63.5 264.5,61.5 Z"/></g>
<g><path style="opacity:1" fill="#fef2d1" d="M 182.5,63.5 C 186.051,64.1855 186.217,65.1855 183,66.5C 182.517,65.552 182.351,64.552 182.5,63.5 Z"/></g>
<g><path style="opacity:1" fill="#fef5e8" d="M 257.5,80.5 C 254.104,79.5276 250.937,79.5276 248,80.5C 247.215,78.714 246.049,77.214 244.5,76C 238.344,72.0029 232.344,67.8362 226.5,63.5C 226.369,62.6236 226.702,61.9569 227.5,61.5C 228.893,62.8631 230.559,63.6964 232.5,64C 241.027,69.3891 249.361,74.8891 257.5,80.5 Z"/></g>
<g><path style="opacity:1" fill="#fdebe2" d="M 250.5,66.5 C 253.793,66.315 256.46,67.4817 258.5,70C 258.167,70.5 257.833,71 257.5,71.5C 255.78,70.066 253.78,69.2326 251.5,69C 250.748,68.3292 250.414,67.4959 250.5,66.5 Z"/></g>
<g><path style="opacity:1" fill="#fde296" d="M 144.5,69.5 C 146.527,69.3379 148.527,69.5045 150.5,70C 148.121,72.1422 146.121,71.9755 144.5,69.5 Z"/></g>
<g><path style="opacity:1" fill="#feecba" d="M 187.5,69.5 C 190.562,69.8442 193.562,70.5109 196.5,71.5C 196.192,72.3081 195.692,72.9747 195,73.5C 192.551,73.0631 190.217,73.0631 188,73.5C 187.51,72.2068 187.343,70.8734 187.5,69.5 Z"/></g>
<g><path style="opacity:1" fill="#fde8ac" d="M 217.5,74.5 C 218.675,74.281 219.675,74.6143 220.5,75.5C 218.948,76.7979 217.948,76.4646 217.5,74.5 Z"/></g>
<g><path style="opacity:1" fill="#fef4e9" d="M 69.5,71.5 C 69.3601,73.1238 70.0267,74.2904 71.5,75C 71.0055,79.9308 70.0055,84.7642 68.5,89.5C 69.1667,90.8333 69.8333,92.1667 70.5,93.5C 69.675,94.3857 68.675,94.719 67.5,94.5C 67.3859,101.245 68.0526,107.912 69.5,114.5C 69.315,115.584 68.9817,116.584 68.5,117.5C 67.5041,117.586 66.6708,117.252 66,116.5C 65.8091,114.292 65.3091,112.292 64.5,110.5C 64.3832,108.516 65.0499,106.85 66.5,105.5C 65.696,104.059 65.0294,102.559 64.5,101C 64.8792,95.6897 65.3792,90.1897 66,84.5C 67.8013,82.8616 67.9679,81.0283 66.5,79C 66.9821,76.1807 67.9821,73.6807 69.5,71.5 Z"/></g>
<g><path style="opacity:1" fill="#f7b998" d="M 280.5,69.5 C 281.797,71.6934 281.797,74.0268 280.5,76.5C 279.286,74.1413 279.286,71.808 280.5,69.5 Z"/></g>
<g><path style="opacity:1" fill="#fefdfc" d="M 163.5,84.5 C 163.5,83.8333 163.5,83.1667 163.5,82.5C 164.802,81.1931 166.135,81.1931 167.5,82.5C 168.571,80.6745 167.904,79.5079 165.5,79C 172.328,78.7037 178.994,79.7037 185.5,82C 186.257,83.5122 187.257,84.8455 188.5,86C 186.256,88.3486 185.089,87.8486 185,84.5C 183.221,85.4791 181.555,85.1458 180,83.5C 179.51,84.7932 179.343,86.1266 179.5,87.5C 187.304,89.4586 194.97,91.7919 202.5,94.5C 206.37,97.4842 210.37,99.6509 214.5,101C 217.168,101.567 219.834,102.067 222.5,102.5C 222.225,107.22 223.059,107.554 225,103.5C 226.167,104.667 227.333,105.833 228.5,107C 225.848,109.406 226.348,111.239 230,112.5C 230.333,112.167 230.667,111.833 231,111.5C 232.188,112.563 232.688,113.897 232.5,115.5C 233.5,115.5 234.5,115.5 235.5,115.5C 235.5,117.167 235.5,118.833 235.5,120.5C 236.833,120.5 238.167,120.5 239.5,120.5C 239.351,121.552 239.517,122.552 240,123.5C 241.667,124.5 243,125.833 244,127.5C 244.893,126.289 245.726,126.289 246.5,127.5C 249.378,131.387 251.212,135.72 252,140.5C 253,141.5 254,142.5 255,143.5C 258.827,160.774 262.327,178.107 265.5,195.5C 265.101,209.626 263.601,223.626 261,237.5C 260.027,239.64 258.527,241.307 256.5,242.5C 256.833,243.167 257.167,243.833 257.5,244.5C 253.098,248.298 249.931,252.964 248,258.5C 246.989,259.337 245.822,259.67 244.5,259.5C 244.657,260.873 244.49,262.207 244,263.5C 240,270.167 236,276.833 232,283.5C 229.205,285.293 226.705,287.46 224.5,290C 202.55,295.281 180.216,300.948 157.5,307C 145.081,305.678 132.747,303.845 120.5,301.5C 118.962,301.673 117.462,302.006 116,302.5C 112.91,301.137 109.744,299.97 106.5,299C 105.187,296.674 103.187,295.341 100.5,295C 94.4423,289.978 91.7756,283.478 92.5,275.5C 92.633,271.277 93.633,267.444 95.5,264C 94.5085,246.246 93.8418,228.579 93.5,211C 96.0371,189.654 97.3704,168.154 97.5,146.5C 96.2012,132.186 95.3679,117.853 95,103.5C 99.1193,98.1937 104.619,95.6937 111.5,96C 114.207,93.2675 117.374,92.7675 121,94.5C 130.351,92.1098 139.851,91.1098 149.5,91.5C 149.354,89.0576 150.187,88.3909 152,89.5C 153.804,86.3532 156.304,85.6865 159.5,87.5C 161.819,86.9361 164.153,86.4361 166.5,86C 165.263,85.7679 164.263,85.2679 163.5,84.5 Z"/></g>
<g><path style="opacity:1" fill="#fef0c8" d="M 163.5,82.5 C 163.5,83.1667 163.5,83.8333 163.5,84.5C 161.283,83.6314 158.95,83.298 156.5,83.5C 156.281,82.325 156.614,81.325 157.5,80.5C 159.833,81.5021 161.833,82.1687 163.5,82.5 Z"/></g>
<g><path style="opacity:1" fill="#fac9b1" d="M 291.5,83.5 C 288.642,81.8759 287.975,82.5426 289.5,85.5C 288.883,85.6107 288.383,85.944 288,86.5C 287.713,84.1093 287.213,81.7759 286.5,79.5C 287.5,78.1667 288.5,78.1667 289.5,79.5C 290.853,80.5237 291.52,81.857 291.5,83.5 Z"/></g>
<g><path style="opacity:1" fill="#fdeddc" d="M 257.5,80.5 C 260.419,81.913 262.919,83.913 265,86.5C 265.483,87.448 265.649,88.448 265.5,89.5C 261.754,87.423 259.088,84.423 257.5,80.5 Z"/></g>
<g><path style="opacity:1" fill="#fdefe8" d="M 291.5,83.5 C 293.738,86.2993 295.738,89.2993 297.5,92.5C 296.5,93.8333 295.5,93.8333 294.5,92.5C 293.057,89.9235 291.39,87.5901 289.5,85.5C 287.975,82.5426 288.642,81.8759 291.5,83.5 Z"/></g>
<g><path style="opacity:1" fill="#fee49e" d="M 203.5,91.5 C 206.196,90.2272 208.862,90.5605 211.5,92.5C 211,92.8333 210.5,93.1667 210,93.5C 207.846,92.7259 205.679,92.0592 203.5,91.5 Z"/></g>
<g><path style="opacity:1" fill="#f6b593" d="M 303.5,88.5 C 304.604,89.9974 305.604,91.664 306.5,93.5C 306.457,94.4164 306.124,95.0831 305.5,95.5C 304.061,93.412 303.394,91.0786 303.5,88.5 Z"/></g>
<g><path style="opacity:1" fill="#fce1d4" d="M 274.5,92.5 C 276.465,92.9483 276.798,93.9483 275.5,95.5C 274.614,94.675 274.281,93.675 274.5,92.5 Z"/></g>
<g><path style="opacity:1" fill="#fdecbd" d="M 252.5,93.5 C 254.085,94.0024 254.585,95.0024 254,96.5C 252.961,95.7562 252.461,94.7562 252.5,93.5 Z"/></g>
<g><path style="opacity:1" fill="#f5b28e" d="M 302.5,96.5 C 301.432,97.4345 300.099,97.7678 298.5,97.5C 298.5,98.5 298.5,99.5 298.5,100.5C 297.566,99.4324 297.232,98.099 297.5,96.5C 299.167,96.5 300.833,96.5 302.5,96.5 Z"/></g>
<g><path style="opacity:1" fill="#fbe3d6" d="M 51.5,101.5 C 52.7773,102.694 53.4439,104.36 53.5,106.5C 53.3333,108.167 53.1667,109.833 53,111.5C 51.6842,108.312 51.1842,104.978 51.5,101.5 Z"/></g>
<g><path style="opacity:1" fill="#f8c3a8" d="M 37.5,107.5 C 37.8039,108.15 38.1373,108.817 38.5,109.5C 37.1468,110.524 36.4802,111.857 36.5,113.5C 35.8529,112.726 35.5195,111.726 35.5,110.5C 35.6399,108.97 36.3065,107.97 37.5,107.5 Z"/></g>
<g><path style="opacity:1" fill="#fef2d2" d="M 272.5,112.5 C 273.973,113.072 275.307,113.905 276.5,115C 274.032,116.758 272.698,115.924 272.5,112.5 Z"/></g>
<g><path style="opacity:1" fill="#f7bf97" d="M 64.5,110.5 C 65.3091,112.292 65.8091,114.292 66,116.5C 66.6708,117.252 67.5041,117.586 68.5,117.5C 68.1667,118.167 67.8333,118.833 67.5,119.5C 66.8333,119.5 66.1667,119.5 65.5,119.5C 64.701,116.57 64.3677,113.57 64.5,110.5 Z"/></g>
<g><path style="opacity:1" fill="#f8cab1" d="M 296.5,116.5 C 295.566,117.568 295.232,118.901 295.5,120.5C 294.355,116.677 293.855,112.677 294,108.5C 295.024,111.135 295.857,113.802 296.5,116.5 Z"/></g>
<g><path style="opacity:1" fill="#fdf2e6" d="M 281.5,113.5 C 287.072,120.979 290.739,129.312 292.5,138.5C 291.504,138.586 290.671,138.252 290,137.5C 288.271,132.096 286.438,126.762 284.5,121.5C 283.675,120.614 282.675,120.281 281.5,120.5C 281.5,118.167 281.5,115.833 281.5,113.5 Z"/></g>
<g><path style="opacity:1" fill="#f8c9b0" d="M 307.5,110.5 C 308.236,113.695 308.903,117.029 309.5,120.5C 309.376,121.107 309.043,121.44 308.5,121.5C 307.577,117.936 307.244,114.269 307.5,110.5 Z"/></g>
<g><path style="opacity:1" fill="#fbc831" d="M 170.5,128.5 C 179.028,127.885 187.361,128.718 195.5,131C 199.667,135.167 203.833,139.333 208,143.5C 209.174,147.046 209.84,150.713 210,154.5C 213.935,163.248 217.102,172.248 219.5,181.5C 217.235,182.647 214.902,182.814 212.5,182C 210.645,180.145 208.812,178.312 207,176.5C 203.882,178.615 201.048,181.115 198.5,184C 185.443,191.011 172.443,191.011 159.5,184C 155.017,180.032 152.017,175.198 150.5,169.5C 151.552,169.351 152.552,169.517 153.5,170C 157.379,178.609 164.046,183.276 173.5,184C 178.167,184.667 182.833,184.667 187.5,184C 192.118,181.05 196.452,177.716 200.5,174C 201.448,173.517 202.448,173.351 203.5,173.5C 203.023,168.615 201.023,164.449 197.5,161C 193.846,159.703 191.179,160.703 189.5,164C 184.841,165.651 182.174,164.151 181.5,159.5C 176.821,159.334 172.155,159.501 167.5,160C 173.889,162.428 174.056,164.928 168,167.5C 163.453,166.025 162.62,163.358 165.5,159.5C 158.858,158.669 152.191,158.169 145.5,158C 149.075,154.676 150.909,150.509 151,145.5C 155.4,137.302 161.9,131.636 170.5,128.5 Z"/></g>
<g><path style="opacity:1" fill="#fdefe9" d="M 296.5,116.5 C 297.126,118.626 298.459,120.293 300.5,121.5C 301.325,125.122 301.825,128.789 302,132.5C 303.602,134.395 305.102,136.395 306.5,138.5C 304.055,140.364 303.888,142.364 306,144.5C 306.667,147.5 306.667,150.5 306,153.5C 302.432,143.266 298.932,132.266 295.5,120.5C 295.232,118.901 295.566,117.568 296.5,116.5 Z"/></g>
<g><path style="opacity:1" fill="#fbdec0" d="M 293.5,144.5 C 295.482,146.597 296.482,149.264 296.5,152.5C 294.733,150.208 293.733,147.542 293.5,144.5 Z"/></g>
<g><path style="opacity:1" fill="#fdeede" d="M 65.5,119.5 C 66.1667,119.5 66.8333,119.5 67.5,119.5C 67.7118,121.384 68.7118,122.717 70.5,123.5C 70.1924,124.308 69.6924,124.975 69,125.5C 68.8333,129.5 68.6667,133.5 68.5,137.5C 68.5916,142.142 69.2582,146.642 70.5,151C 69.8333,152 69.1667,153 68.5,154C 69.1667,156.333 69.8333,158.667 70.5,161C 69.6045,166.458 69.6045,171.792 70.5,177C 68.6567,179.542 67.6567,182.375 67.5,185.5C 72.6294,185.719 72.6294,186.386 67.5,187.5C 67.9045,193.74 67.9045,200.073 67.5,206.5C 66.1994,201.737 64.8661,196.903 63.5,192C 64.448,191.517 65.448,191.351 66.5,191.5C 66.7001,182.497 67.0334,173.497 67.5,164.5C 66.5613,149.443 65.8946,134.443 65.5,119.5 Z"/></g>
<g><path style="opacity:1" fill="#f8bf8a" d="M 296.5,153.5 C 297.924,155.515 298.59,157.848 298.5,160.5C 297.883,160.389 297.383,160.056 297,159.5C 296.505,157.527 296.338,155.527 296.5,153.5 Z"/></g>
<g><path style="opacity:1" fill="#fcebe2" d="M 305.5,166.5 C 306.756,166.461 307.756,166.961 308.5,168C 306.52,175.04 305.52,174.54 305.5,166.5 Z"/></g>
<g><path style="opacity:1" fill="#fbcb41" d="M 186.5,172.5 C 187.833,172.5 189.167,172.5 190.5,172.5C 189.812,179.023 186.145,182.023 179.5,181.5C 175.933,181.589 172.6,180.755 169.5,179C 167.485,177.445 167.152,175.611 168.5,173.5C 171.54,176.019 174.873,178.019 178.5,179.5C 181.792,177.958 184.458,175.624 186.5,172.5 Z"/></g>
<g><path style="opacity:1" fill="#fefaf5" d="M 300.5,187.5 C 301.496,187.414 302.329,187.748 303,188.5C 302.905,196.043 303.072,203.376 303.5,210.5C 303.113,212.274 302.447,213.941 301.5,215.5C 302.853,216.524 303.52,217.857 303.5,219.5C 301.564,223.715 300.897,228.381 301.5,233.5C 299.631,248.119 294.631,261.452 286.5,273.5C 285.549,272.081 285.216,270.415 285.5,268.5C 288.205,256.378 291.538,244.378 295.5,232.5C 295.113,230.726 294.447,229.059 293.5,227.5C 294.328,222.356 295.662,217.356 297.5,212.5C 297.291,211.914 296.957,211.414 296.5,211C 298.881,207.775 300.214,204.108 300.5,200C 300.05,198.715 299.383,197.548 298.5,196.5C 299.169,193.47 299.835,190.47 300.5,187.5 Z"/></g>
<g><path style="opacity:1" fill="#f1844b" d="M 139.5,192.5 C 160.43,190.928 173.43,200.095 178.5,220C 178.167,220.833 177.833,221.667 177.5,222.5C 173.061,220.298 168.394,218.798 163.5,218C 158.044,214.051 152.711,209.884 147.5,205.5C 139.796,213.107 130.962,219.107 121,223.5C 119.006,208.136 125.173,197.803 139.5,192.5 Z"/></g>
<g><path style="opacity:1" fill="#f1844c" d="M 247.5,214.5 C 247.5,216.5 247.5,218.5 247.5,220.5C 246.167,220.5 244.833,220.5 243.5,220.5C 240.856,217.52 238.189,214.52 235.5,211.5C 233.465,213.372 231.298,215.039 229,216.5C 227.333,215.167 225.667,213.833 224,212.5C 222.155,213.756 220.155,214.756 218,215.5C 215.845,214.756 213.845,213.756 212,212.5C 210.177,213.651 208.344,214.818 206.5,216C 204.287,216.626 202.12,216.459 200,215.5C 197.326,218.921 193.826,220.921 189.5,221.5C 189.5,220.5 189.5,219.5 189.5,218.5C 190.912,216.396 191.912,214.063 192.5,211.5C 198.518,195.985 209.852,189.485 226.5,192C 238.174,195.173 245.174,202.673 247.5,214.5 Z"/></g>
<g><path style="opacity:1" fill="#fdece4" d="M 317.5,208.5 C 317.158,209.338 316.492,209.672 315.5,209.5C 315.55,205.161 315.216,200.661 314.5,196C 314.482,193.611 315.149,191.444 316.5,189.5C 317.496,195.798 317.83,202.132 317.5,208.5 Z"/></g>
<g><path style="opacity:1" fill="#fce7a7" d="M 291.5,213.5 C 289.334,210.96 288.334,211.627 288.5,215.5C 287.549,214.081 287.216,212.415 287.5,210.5C 288.833,210.5 290.167,210.5 291.5,210.5C 291.5,211.5 291.5,212.5 291.5,213.5 Z"/></g>
<g><path style="opacity:1" fill="#fcdd80" d="M 270.5,210.5 C 270.56,209.957 270.893,209.624 271.5,209.5C 272.8,212.309 272.8,214.976 271.5,217.5C 271.802,214.941 271.468,212.607 270.5,210.5 Z"/></g>
<g><path style="opacity:1" fill="#f8b897" d="M 317.5,208.5 C 318.788,210.491 318.288,212.158 316,213.5C 315.5,213.167 315,212.833 314.5,212.5C 315.127,211.583 315.461,210.583 315.5,209.5C 316.492,209.672 317.158,209.338 317.5,208.5 Z"/></g>
<g><path style="opacity:1" fill="#f8c5ab" d="M 192.5,211.5 C 191.912,214.063 190.912,216.396 189.5,218.5C 189.182,215.519 190.182,213.185 192.5,211.5 Z"/></g>
<g><path style="opacity:1" fill="#f28b55" d="M 155.5,219.5 C 157.842,219.504 159.842,220.337 161.5,222C 157.914,224.533 155.914,223.7 155.5,219.5 Z"/></g>
<g><path style="opacity:1" fill="#f39260" d="M 227.5,218.5 C 228.833,218.5 230.167,218.5 231.5,218.5C 231.99,220.948 231.157,222.615 229,223.5C 226.389,222.5 225.889,220.833 227.5,218.5 Z"/></g>
<g><path style="opacity:1" fill="#f9d2be" d="M 315.5,214.5 C 316.909,217.178 316.743,219.844 315,222.5C 314.278,219.739 314.445,217.073 315.5,214.5 Z"/></g>
<g><path style="opacity:1" fill="#f28f5c" d="M 138.5,219.5 C 143.645,220.482 143.812,222.149 139,224.5C 135.927,223.252 135.76,221.585 138.5,219.5 Z"/></g>
<g><path style="opacity:1" fill="#f6b796" d="M 247.5,214.5 C 248.468,216.607 248.802,218.941 248.5,221.5C 246.585,221.784 244.919,221.451 243.5,220.5C 244.833,220.5 246.167,220.5 247.5,220.5C 247.5,218.5 247.5,216.5 247.5,214.5 Z"/></g>
<g><path style="opacity:1" fill="#f4a47b" d="M 303.5,219.5 C 302.883,224.269 302.216,228.936 301.5,233.5C 300.897,228.381 301.564,223.715 303.5,219.5 Z"/></g>
<g><path style="opacity:1" fill="#f2905d" d="M 207.5,220.5 C 209.701,220.858 211.035,222.192 211.5,224.5C 207.14,226.14 205.807,224.807 207.5,220.5 Z"/></g>
<g><path style="opacity:1" fill="#fef4d9" d="M 270.5,210.5 C 271.468,212.607 271.802,214.941 271.5,217.5C 271.924,221.703 271.424,225.703 270,229.5C 270.125,223.058 270.292,216.724 270.5,210.5 Z"/></g>
<g><path style="opacity:1" fill="#fef9ec" d="M 291.5,213.5 C 290.627,217.768 290.294,222.102 290.5,226.5C 290.672,227.492 290.338,228.158 289.5,228.5C 288.515,224.366 288.182,220.032 288.5,215.5C 288.334,211.627 289.334,210.96 291.5,213.5 Z"/></g>
<g><path style="opacity:1" fill="#f18851" d="M 177.5,224.5 C 180.099,224.549 182.266,225.549 184,227.5C 188.509,234.202 190.176,241.535 189,249.5C 188.586,249.957 188.086,250.291 187.5,250.5C 181.659,245.154 178.159,238.488 177,230.5C 167.443,249.019 152.943,254.519 133.5,247C 131.333,244.833 129.167,242.667 127,240.5C 126.131,237.67 124.964,235.003 123.5,232.5C 123.833,231.5 124.5,230.833 125.5,230.5C 133.349,246.837 145.349,250.671 161.5,242C 167.491,236.521 172.824,230.687 177.5,224.5 Z"/></g>
<g><path style="opacity:1" fill="#f28a54" d="M 243.5,227.5 C 244.586,227.62 245.253,228.287 245.5,229.5C 244.017,235.64 240.684,240.474 235.5,244C 228.036,248.38 220.036,250.047 211.5,249C 204.196,245.023 198.196,239.69 193.5,233C 193.85,231.743 194.517,231.409 195.5,232C 199.167,235.667 202.833,239.333 206.5,243C 208.768,244.552 211.268,245.385 214,245.5C 224.085,243.29 233.085,238.957 241,232.5C 241.366,230.548 242.199,228.882 243.5,227.5 Z"/></g>
<g><path style="opacity:1" fill="#f18851" d="M 113.5,229.5 C 114.833,229.5 116.167,229.5 117.5,229.5C 117.22,238.672 114.553,247.005 109.5,254.5C 108.914,254.291 108.414,253.957 108,253.5C 107.333,250.5 107.333,247.5 108,244.5C 109.847,239.479 111.68,234.479 113.5,229.5 Z"/></g>
<g><path style="opacity:1" fill="#fce4d8" d="M 312.5,235.5 C 312.412,231.694 313.079,228.027 314.5,224.5C 314.833,225.167 315.167,225.833 315.5,226.5C 315.324,230.004 314.324,233.004 312.5,235.5 Z"/></g>
<g><path style="opacity:1" fill="#f28a54" d="M 138.5,228.5 C 140.187,233.018 143.52,235.018 148.5,234.5C 150.167,234.333 151.833,234.167 153.5,234C 155.527,232.121 157.86,230.954 160.5,230.5C 160.201,233.642 158.534,235.809 155.5,237C 149.16,239.582 143.326,238.748 138,234.5C 137.322,232.402 137.489,230.402 138.5,228.5 Z"/></g>
<g><path style="opacity:1" fill="#f28d59" d="M 229.5,229.5 C 230.5,229.5 231.5,229.5 232.5,229.5C 232.256,232.263 230.923,234.429 228.5,236C 220.559,240.956 213.059,240.456 206,234.5C 205.51,233.207 205.343,231.873 205.5,230.5C 208.439,230.918 210.772,232.418 212.5,235C 217.804,236.066 222.804,235.4 227.5,233C 228.823,232.184 229.489,231.017 229.5,229.5 Z"/></g>
<g><path style="opacity:1" fill="#fee8ac" d="M 290.5,226.5 C 291.097,226.735 291.43,227.235 291.5,228C 290.089,230.978 289.089,234.145 288.5,237.5C 287.085,234.205 287.419,231.205 289.5,228.5C 290.338,228.158 290.672,227.492 290.5,226.5 Z"/></g>
<g><path style="opacity:1" fill="#fef4ea" d="M 66.5,209.5 C 68.5279,216.136 70.1945,222.97 71.5,230C 70.4955,242.49 69.6622,254.99 69,267.5C 68.0093,268.43 67.5093,269.596 67.5,271C 68.4759,282.454 68.4759,293.954 67.5,305.5C 69.6048,312.768 69.9382,320.101 68.5,327.5C 65.0126,314.877 63.3459,301.877 63.5,288.5C 63.1577,275.431 64.4911,262.598 67.5,250C 66.3622,238.925 66.3622,227.758 67.5,216.5C 65.2567,214.407 64.9234,212.074 66.5,209.5 Z"/></g>
<g><path style="opacity:1" fill="#fef5de" d="M 263.5,245.5 C 263.586,249.728 261.753,253.394 258,256.5C 259.246,252.674 261.08,249.007 263.5,245.5 Z"/></g>
<g><path style="opacity:1" fill="#fdede5" d="M 312.5,235.5 C 311.549,247.661 309.715,259.661 307,271.5C 305.364,275.11 303.364,278.443 301,281.5C 303.837,266.477 307.17,251.477 311,236.5C 311.383,235.944 311.883,235.611 312.5,235.5 Z"/></g>
<g><path style="opacity:1" fill="#f6ac86" d="M 34.5,253.5 C 34.7651,258.375 34.7651,263.375 34.5,268.5C 33.3683,263.285 33.3683,258.285 34.5,253.5 Z"/></g>
<g><path style="opacity:1" fill="#fdf2d1" d="M 282.5,254.5 C 283.097,254.735 283.43,255.235 283.5,256C 282.667,258.5 281.833,261 281,263.5C 280.333,265.5 279,266.833 277,267.5C 279.28,263.536 281.113,259.202 282.5,254.5 Z"/></g>
<g><path style="opacity:1" fill="#fce7a9" d="M 247.5,268.5 C 248.776,269.386 248.776,270.386 247.5,271.5C 246.438,270.575 246.438,269.575 247.5,268.5 Z"/></g>
<g><path style="opacity:1" fill="#facf85" d="M 285.5,268.5 C 285.216,270.415 285.549,272.081 286.5,273.5C 286.068,274.71 285.401,275.71 284.5,276.5C 284.194,273.615 284.527,270.948 285.5,268.5 Z"/></g>
<g><path style="opacity:1" fill="#fef1cd" d="M 76.5,280.5 C 77.1174,280.611 77.6174,280.944 78,281.5C 78.8289,286.533 78.6623,291.533 77.5,296.5C 76.5052,291.208 76.1718,285.875 76.5,280.5 Z"/></g>
<g><path style="opacity:1" fill="#fbdab8" d="M 281.5,280.5 C 278.051,287.731 273.384,294.065 267.5,299.5C 271.949,292.903 276.616,286.569 281.5,280.5 Z"/></g>
<g><path style="opacity:1" fill="#fde9df" d="M 293.5,289.5 C 295.063,295.94 292.896,300.94 287,304.5C 286.675,302.447 287.009,300.447 288,298.5C 290.483,295.861 292.316,292.861 293.5,289.5 Z"/></g>
<g><path style="opacity:1" fill="#fdedbe" d="M 92.5,300.5 C 93.3864,299.224 94.3864,299.224 95.5,300.5C 94.5754,301.562 93.5754,301.562 92.5,300.5 Z"/></g>
<g><path style="opacity:1" fill="#fef9ea" d="M 231.5,300.5 C 232.653,301.313 232.653,302.313 231.5,303.5C 230.635,304.583 229.635,304.749 228.5,304C 229.71,302.961 230.71,301.794 231.5,300.5 Z"/></g>
<g><path style="opacity:1" fill="#fdf2ec" d="M 276.5,298.5 C 275.425,305.762 271.759,311.928 265.5,317C 262.318,317.133 261.818,315.966 264,313.5C 268.378,308.627 272.545,303.627 276.5,298.5 Z"/></g>
<g><path style="opacity:1" fill="#fde7ab" d="M 116.5,305.5 C 118.104,306.287 118.771,307.62 118.5,309.5C 117.127,309.657 115.793,309.49 114.5,309C 115.823,308.184 116.489,307.017 116.5,305.5 Z"/></g>
<g><path style="opacity:1" fill="#fdecbb" d="M 120.5,309.5 C 122.185,308.156 123.852,308.323 125.5,310C 123.803,310.384 122.137,310.218 120.5,309.5 Z"/></g>
<g><path style="opacity:1" fill="#fef6e1" d="M 210.5,306.5 C 211.376,306.369 212.043,306.702 212.5,307.5C 211.459,309.585 209.959,311.252 208,312.5C 207.667,312.167 207.333,311.833 207,311.5C 204.902,312.567 202.735,313.067 200.5,313C 203.707,310.36 207.04,308.193 210.5,306.5 Z"/></g>
<g><path style="opacity:1" fill="#fef4d9" d="M 207.5,314.5 C 209.042,315.301 210.708,315.634 212.5,315.5C 212.5,316.5 212.5,317.5 212.5,318.5C 208.63,320.314 206.963,318.981 207.5,314.5 Z"/></g>
<g><path style="opacity:1" fill="#fdf8ea" d="M 106.5,326.5 C 110.06,328.283 110.06,329.283 106.5,329.5C 106.5,328.5 106.5,327.5 106.5,326.5 Z"/></g>
<g><path style="opacity:1" fill="#fdf2ec" d="M 51.5,320.5 C 53.0766,323.356 54.0766,326.522 54.5,330C 54.3177,332.863 54.3177,335.697 54.5,338.5C 53.5224,338.023 52.6891,337.357 52,336.5C 51.5006,331.177 51.334,325.844 51.5,320.5 Z"/></g>
<g><path style="opacity:1" fill="#fef4d7" d="M 110.5,327.5 C 112.044,327.703 113.378,328.37 114.5,329.5C 115.167,328.833 115.833,328.167 116.5,327.5C 117.719,328.646 119.052,329.646 120.5,330.5C 117.26,330.976 113.927,330.976 110.5,330.5C 110.5,329.5 110.5,328.5 110.5,327.5 Z"/></g>
<g><path style="opacity:1" fill="#fef6e1" d="M 135.5,330.5 C 132.833,331.167 130.167,331.833 127.5,332.5C 123.878,335.589 122.211,334.589 122.5,329.5C 124.46,328.862 126.293,328.862 128,329.5C 128.915,328.672 129.581,327.672 130,326.5C 130.308,327.308 130.808,327.975 131.5,328.5C 132.451,327.674 133.451,327.508 134.5,328C 133.434,329.159 133.767,329.992 135.5,330.5 Z"/></g>
<g><path style="opacity:1" fill="#fdefc6" d="M 149.5,328.5 C 151.973,328.947 152.14,329.947 150,331.5C 149.517,330.552 149.351,329.552 149.5,328.5 Z"/></g>
<g><path style="opacity:1" fill="#fef6e1" d="M 158.5,326.5 C 159.404,327.209 159.737,328.209 159.5,329.5C 157.435,330.445 155.601,331.112 154,331.5C 153.517,330.552 153.351,329.552 153.5,328.5C 155.698,328.88 157.365,328.213 158.5,326.5 Z"/></g>
<g><path style="opacity:1" fill="#fef8e8" d="M 188.5,327.5 C 190.777,328.075 192.777,328.409 194.5,328.5C 192.713,329.316 191.046,330.316 189.5,331.5C 184.247,331.658 178.914,331.325 173.5,330.5C 175.78,329.689 178.28,329.689 181,330.5C 182.666,328.597 184.5,328.263 186.5,329.5C 187.713,329.253 188.38,328.586 188.5,327.5 Z"/></g>
<g><path style="opacity:1" fill="#fceacc" d="M 223.5,330.5 C 222.335,332.109 221.001,332.443 219.5,331.5C 218.692,326.66 220.025,326.327 223.5,330.5 Z"/></g>
<g><path style="opacity:1" fill="#fce6a5" d="M 140.5,330.5 C 139.167,331.5 139.167,332.5 140.5,333.5C 139.265,333.279 138.265,332.612 137.5,331.5C 136.808,332.025 136.308,332.692 136,333.5C 133.281,332.556 130.448,332.223 127.5,332.5C 130.167,331.833 132.833,331.167 135.5,330.5C 137.234,329.438 138.901,329.438 140.5,330.5 Z"/></g>
<g><path style="opacity:1" fill="#fefcf8" d="M 140.5,330.5 C 142.451,331.641 144.451,331.641 146.5,330.5C 146.923,332.781 146.256,334.448 144.5,335.5C 144.163,332.664 142.829,331.998 140.5,333.5C 139.167,332.5 139.167,331.5 140.5,330.5 Z"/></g>
<g><path style="opacity:1" fill="#fdeacf" d="M 215.5,332.5 C 214.365,334.213 212.698,334.88 210.5,334.5C 210.461,333.244 210.961,332.244 212,331.5C 213.145,331.619 214.312,331.952 215.5,332.5 Z"/></g>
<g><path style="opacity:1" fill="#fdefe8" d="M 251.5,331.5 C 252.376,331.369 253.043,331.702 253.5,332.5C 252.352,334.149 251.019,335.649 249.5,337C 245.35,338.576 241.35,340.409 237.5,342.5C 237.167,342.167 236.833,341.833 236.5,341.5C 241.524,338.028 246.524,334.694 251.5,331.5 Z"/></g>
<g><path style="opacity:1" fill="#fdeedc" d="M 209.5,334.5 C 207.735,335.461 205.735,335.795 203.5,335.5C 205.32,333.539 207.32,333.206 209.5,334.5 Z"/></g>
<g><path style="opacity:1" fill="#fcdf89" d="M 146.5,330.5 C 147.942,332.616 149.942,334.116 152.5,335C 149.735,336.476 147.068,336.643 144.5,335.5C 146.256,334.448 146.923,332.781 146.5,330.5 Z"/></g>
<g><path style="opacity:1" fill="#fcdec0" d="M 200.5,336.5 C 199.158,337.793 197.491,338.626 195.5,339C 186.552,340.568 177.552,341.735 168.5,342.5C 168.5,342.167 168.5,341.833 168.5,341.5C 170.556,340.784 172.723,340.117 175,339.5C 175.914,340.654 176.747,340.487 177.5,339C 185.243,338.733 192.91,337.9 200.5,336.5 Z"/></g>
<g><path style="opacity:1" fill="#fbd9b8" d="M 111.5,339.5 C 110.5,340.167 109.5,340.833 108.5,341.5C 103.305,341.821 98.3054,341.487 93.5,340.5C 99.4093,339.545 105.409,339.211 111.5,339.5 Z"/></g>
<g><path style="opacity:1" fill="#fdf0e2" d="M 168.5,341.5 C 168.5,341.833 168.5,342.167 168.5,342.5C 164.694,343.235 160.194,343.569 155,343.5C 153.596,343.491 152.43,342.991 151.5,342C 137.171,341.5 122.837,341.333 108.5,341.5C 109.5,340.833 110.5,340.167 111.5,339.5C 122.728,340.235 133.895,340.569 145,340.5C 148.667,339.833 152.333,339.167 156,338.5C 158.149,338.658 159.983,339.492 161.5,341C 163.81,341.497 166.143,341.663 168.5,341.5 Z"/></g>
<g><path style="opacity:1" fill="#fdf1eb" d="M 44.5,347.5 C 46.2517,347.418 47.2517,348.251 47.5,350C 46.7113,351.626 45.7113,353.126 44.5,354.5C 43.4249,352.189 43.4249,349.856 44.5,347.5 Z"/></g>
<g><path style="opacity:1" fill="#fdefe7" d="M 231.5,359.5 C 230.732,360.263 230.232,361.263 230,362.5C 229.329,363.252 228.496,363.586 227.5,363.5C 228.141,362.518 228.807,361.518 229.5,360.5C 229.167,360.167 228.833,359.833 228.5,359.5C 226.997,360.052 225.331,360.052 223.5,359.5C 221.585,359.784 219.919,359.451 218.5,358.5C 224.226,356.014 229.726,353.014 235,349.5C 235.333,349.833 235.667,350.167 236,350.5C 238.327,347.734 241.16,347.068 244.5,348.5C 244.333,348.833 244.167,349.167 244,349.5C 240.075,352.43 235.908,354.93 231.5,357C 230.402,357.77 230.402,358.603 231.5,359.5 Z"/></g>
<g><path style="opacity:1" fill="#fad7c5" d="M 58.5,355.5 C 60.288,355.215 61.9547,355.548 63.5,356.5C 62.6667,356.833 61.8333,357.167 61,357.5C 59.6244,357.316 58.7911,356.649 58.5,355.5 Z"/></g>
<g><path style="opacity:1" fill="#fce3d6" d="M 50.5,358.5 C 52.0481,358.821 52.7148,359.821 52.5,361.5C 49.7524,361.598 49.0857,360.598 50.5,358.5 Z"/></g>
<g><path style="opacity:1" fill="#f6b999" d="M 218.5,358.5 C 219.919,359.451 221.585,359.784 223.5,359.5C 220.822,360.909 218.156,360.743 215.5,359C 216.448,358.517 217.448,358.351 218.5,358.5 Z"/></g>
<g><path style="opacity:1" fill="#fce4d8" d="M 198.5,359.5 C 201.733,360.306 204.733,360.639 207.5,360.5C 204.282,362.372 200.948,362.705 197.5,361.5C 197.863,360.817 198.196,360.15 198.5,359.5 Z"/></g>
<g><path style="opacity:1" fill="#fbc9b0" d="M 178.5,362.5 C 183.495,362.151 183.828,363.151 179.5,365.5C 177.197,365.124 176.863,364.124 178.5,362.5 Z"/></g>
</svg>
